# xmcd
#
# Track frame offsets: 
#        150
#        26850
#        46875
#        65475
#        79875
#        99000
#        114300
#        132750
#        156825
#        165825
#
# Disc length: 2393 seconds
#
# Revision: 0
# Processed by: cddbd v1.5PL3 Copyright (c) Steve Scherf et al.
# Submitted via: ExactAudioCopy v0.95a3
#
DISCID=7009570a
DTITLE=SJV-SC - Sunset Glow
DYEAR=2002
DGENRE=Blues
TTITLE0=Sea Side Seat
TTITLE1=Bright shine on time
TTITLE2=Endress way for us
TTITLE3=REACH OUT IN THE NIGHT
TTITLE4=Don't stop me
TTITLE5=POTENTIAL
TTITLE6=My dear...
TTITLE7=distance of dream
TTITLE8=Terpsichorean of darkness and flame
TTITLE9=Silver Wing
EXTD=
EXTT0=
EXTT1=
EXTT2=
EXTT3=
EXTT4=
EXTT5=
EXTT6=
EXTT7=
EXTT8=
EXTT9=
PLAYORDER=
